<svg xmlns="http://www.w3.org/2000/svg" width="20" height="20" viewBox="0 0 20 20" fill="none">
    <g clip-path="url(#clip0_1415_851)">
        <path d="M8.32115 15.666C9.9471 15.666 11.4465 15.1453 12.6732 14.2773L17.2882 18.8486C17.5024 19.0607 17.7848 19.1668 18.0866 19.1668C18.7194 19.1668 19.1673 18.6846 19.1673 18.0674C19.1673 17.7781 19.07 17.5081 18.8558 17.2959L14.27 12.7439C15.2339 11.4902 15.8083 9.93748 15.8083 8.24977C15.8083 4.17034 12.4396 0.833496 8.32115 0.833496C4.21246 0.833496 0.833984 4.16069 0.833984 8.24977C0.833984 12.3292 4.20272 15.666 8.32115 15.666ZM8.32115 14.0651C5.10819 14.0651 2.4502 11.4323 2.4502 8.24977C2.4502 5.06723 5.10819 2.43441 8.32115 2.43441C11.5341 2.43441 14.1921 5.06723 14.1921 8.24977C14.1921 11.4323 11.5341 14.0651 8.32115 14.0651Z" fill="#414141"/>
    </g>
    <defs>
        <clipPath id="clip0_1415_851">
            <rect width="20" height="20" fill="white"/>
        </clipPath>
    </defs>
</svg>
