<svg width="20" height="21" viewBox="0 0 20 21" fill="none" xmlns="http://www.w3.org/2000/svg">
    <g id="ic / Search_line">
        <path id="Vector" d="M8.32115 16.4392C9.9471 16.4392 11.4465 15.9185 12.6732 15.0505L17.2882 19.6218C17.5024 19.8339 17.7848 19.94 18.0866 19.94C18.7194 19.94 19.1673 19.4578 19.1673 18.8406C19.1673 18.5513 19.07 18.2812 18.8558 18.0691L14.27 13.5171C15.2339 12.2634 15.8083 10.7107 15.8083 9.02296C15.8083 4.94353 12.4396 1.60669 8.32115 1.60669C4.21246 1.60669 0.833984 4.93389 0.833984 9.02296C0.833984 13.1024 4.20272 16.4392 8.32115 16.4392ZM8.32115 14.8383C5.10819 14.8383 2.4502 12.2055 2.4502 9.02296C2.4502 5.84043 5.10819 3.2076 8.32115 3.2076C11.5341 3.2076 14.1921 5.84043 14.1921 9.02296C14.1921 12.2055 11.5341 14.8383 8.32115 14.8383Z" fill="#414141"/>
    </g>
</svg>
