<svg xmlns="http://www.w3.org/2000/svg" width="16" height="16" viewBox="0 0 16 16" fill="none">
    <path d="M0.595534 4.5325H15.3886C15.7221 4.5325 16 4.27047 16 3.92903C16 3.59553 15.7221 3.3335 15.3886 3.3335H0.595534C0.262035 3.3335 0 3.59553 0 3.92903C0 4.27047 0.262035 4.5325 0.595534 4.5325ZM0.595534 8.6933H15.3886C15.7221 8.6933 16 8.42332 16 8.08982C16 7.75633 15.7221 7.49429 15.3886 7.49429H0.595534C0.262035 7.49429 0 7.75633 0 8.08982C0 8.42332 0.262035 8.6933 0.595534 8.6933ZM0.595534 12.8462H15.3886C15.7221 12.8462 16 12.5841 16 12.2506C16 11.9171 15.7221 11.6471 15.3886 11.6471H0.595534C0.262035 11.6471 0 11.9171 0 12.2506C0 12.5841 0.262035 12.8462 0.595534 12.8462Z" fill="#ECECEC"/>
</svg>
