<svg width="44" height="45" viewBox="0 0 44 45" fill="none" xmlns="http://www.w3.org/2000/svg">
    <g clip-path="url(#clip0_1415_1041)">
        <g clip-path="url(#clip1_1415_1041)">
            <path d="M16.166 22.187C16.166 22.475 16.2697 22.7285 16.4886 22.9474L25.6245 31.876C25.8204 32.0833 26.0739 32.187 26.3734 32.187C26.9725 32.187 27.4333 31.7377 27.4333 31.1386C27.4333 30.8391 27.3066 30.5856 27.1222 30.3898L18.7351 22.187L27.1222 13.9842C27.3066 13.7884 27.4333 13.5234 27.4333 13.2354C27.4333 12.6363 26.9725 12.187 26.3734 12.187C26.0739 12.187 25.8204 12.2907 25.6245 12.4866L16.4886 21.4266C16.2697 21.634 16.166 21.899 16.166 22.187Z" fill="#36332E"/>
        </g>
        <rect x="43.5" y="41.687" width="285" height="99" rx="21.5" stroke="black"/>
    </g>
    <defs>
        <clipPath id="clip0_1415_1041">
            <rect width="44" height="44" fill="white" transform="translate(0 0.187012)"/>
        </clipPath>
        <clipPath id="clip1_1415_1041">
            <rect width="20" height="20" fill="white" transform="translate(12 12.187)"/>
        </clipPath>
    </defs>
</svg>
