<svg xmlns="http://www.w3.org/2000/svg" width="20" height="20" viewBox="0 0 20 20" fill="none">
    <path d="M4.16602 10C4.16602 10.288 4.2697 10.5415 4.4886 10.7604L13.6245 19.6889C13.8204 19.8963 14.0739 20 14.3734 20C14.9725 20 15.4333 19.5507 15.4333 18.9516C15.4333 18.6521 15.3066 18.3986 15.1222 18.2028L6.73514 10L15.1222 1.79724C15.3066 1.60138 15.4333 1.33641 15.4333 1.04839C15.4333 0.449309 14.9725 0 14.3734 0C14.0739 0 13.8204 0.103687 13.6245 0.299539L4.4886 9.23963C4.2697 9.447 4.16602 9.71198 4.16602 10Z" fill="#414141"/>
</svg>
