<svg xmlns="http://www.w3.org/2000/svg" width="8" height="8" viewBox="0 0 8 8" fill="none">
    <path d="M0.155588 7.08096C-0.0488456 7.28536 -0.0548583 7.63403 0.155588 7.84444C0.360022 8.05485 0.714776 8.04884 0.91921 7.84444L3.99775 4.76047L7.08229 7.84444C7.28673 8.04884 7.63547 8.05485 7.8399 7.84444C8.05636 7.63403 8.05035 7.28536 7.8399 7.08096L4.76137 3.99699L7.8399 0.919037C8.05035 0.714641 8.05636 0.359955 7.8399 0.155559C7.63547 -0.054848 7.28673 -0.0488364 7.08229 0.155559L3.99775 3.23953L0.91921 0.155559C0.714776 -0.0488364 0.360022 -0.054848 0.155588 0.155559C-0.0548583 0.359955 -0.0488456 0.714641 0.155588 0.919037L3.24014 3.99699L0.155588 7.08096Z" fill="#414141"/>
</svg>
